<svg width="200" height="200" viewBox="0 0 200 200" fill="none" xmlns="http://www.w3.org/2000/svg">
<g clip-path="url(#clip0_1_2)" filter="url(#filter0_b_1_2)">
<path d="M43.0656 99.824C44.2656 100.192 45.2096 100.8 45.8976 101.648C46.6016 102.48 46.9536 103.432 46.9536 104.504C46.9536 105.512 46.5376 106.464 45.7056 107.36C44.8896 108.24 43.8656 108.944 42.6336 109.472C41.4176 110 40.2576 110.264 39.1536 110.264C38.3536 110.264 37.5696 110.224 36.8016 110.144C35.5216 110.064 34.5296 110.024 33.8256 110.024H30.6576V109.16L32.9136 107.384V93.008L30.3696 92.216L30.9216 91.136H33.8016C35.2576 91.136 36.6896 91.088 38.0976 90.992C39.1856 90.928 39.9856 90.896 40.4976 90.896C41.5856 90.896 42.5456 91.104 43.3776 91.52C44.2096 91.936 44.8496 92.504 45.2976 93.224C45.7616 93.928 45.9936 94.72 45.9936 95.6C45.9936 96.4 45.7216 97.168 45.1776 97.904C44.6496 98.64 43.9456 99.272 43.0656 99.8V99.824ZM42.4656 96.776C42.4656 95.544 42.1376 94.536 41.4816 93.752C40.8416 92.968 39.8896 92.576 38.6256 92.576C37.7456 92.576 36.9296 92.824 36.1776 93.32V99.656H39.4656C40.4096 99.656 41.1456 99.408 41.6736 98.912C42.2016 98.416 42.4656 97.704 42.4656 96.776ZM39.8256 108.392C40.9296 108.392 41.8016 108.112 42.4416 107.552C43.0976 106.992 43.4256 106.24 43.4256 105.296C43.4256 104.08 43.0736 103.096 42.3696 102.344C41.6656 101.592 40.6256 101.192 39.2496 101.144C39.1376 101.16 38.9856 101.168 38.7936 101.168H36.1776V107.768C37.2016 108.168 38.4176 108.368 39.8256 108.368V108.392ZM69.6346 109.976H62.0986V109.112L64.3546 107.336V101.192H55.1386V108.056L57.6826 108.896L57.1546 109.976H49.6186V109.112L51.8746 107.336V93.032L49.3306 92.216L49.8826 91.136H57.4186V92L55.1386 93.8V99.992H64.3546V93.032L61.8106 92.216L62.3626 91.136H69.8986V92L67.6186 93.8V108.08L70.1626 108.896L69.6346 109.976ZM91.8576 110H84.2256V109.136L86.5776 107.432L84.8016 103.16H76.8336L75.0096 107.408L79.1376 108.92L78.5856 110H71.1936V109.136L73.5216 107.336L80.1936 91.904L83.0256 90.68L89.9856 107.528L92.3856 108.92L91.8576 110ZM80.9136 93.728L77.3856 101.912H84.2976L80.9136 93.728ZM104.239 105.8C104.239 105.304 104.039 104.84 103.639 104.408C103.239 103.976 102.743 103.584 102.151 103.232C101.559 102.864 100.759 102.416 99.7514 101.888C98.5514 101.264 97.5754 100.72 96.8234 100.256C96.0874 99.792 95.4554 99.248 94.9274 98.624C94.4154 97.984 94.1594 97.28 94.1594 96.512C94.1594 95.712 94.4954 94.856 95.1674 93.944C95.8554 93.016 96.6954 92.24 97.6874 91.616C98.6794 90.976 99.5914 90.656 100.423 90.656C101.431 90.656 102.599 90.776 103.927 91.016C105.271 91.256 106.255 91.512 106.879 91.784V96.56H105.703C104.951 95.264 104.119 94.256 103.207 93.536C102.295 92.816 101.335 92.456 100.327 92.456C99.4634 92.456 98.7834 92.728 98.2874 93.272C97.7914 93.8 97.5434 94.488 97.5434 95.336C97.5434 95.864 97.7434 96.36 98.1434 96.824C98.5594 97.272 99.0714 97.68 99.6794 98.048C100.287 98.416 101.103 98.864 102.127 99.392C103.343 100.032 104.303 100.576 105.007 101.024C105.727 101.472 106.335 102 106.831 102.608C107.343 103.216 107.599 103.896 107.599 104.648C107.599 105.448 107.231 106.312 106.495 107.24C105.775 108.152 104.887 108.928 103.831 109.568C102.775 110.192 101.815 110.504 100.951 110.504C99.8954 110.504 98.6394 110.384 97.1834 110.144C95.7274 109.904 94.6794 109.648 94.0394 109.376V104.6H95.2154C96.0154 105.896 96.9194 106.904 97.9274 107.624C98.9514 108.344 99.9994 108.704 101.071 108.704C101.711 108.704 102.271 108.568 102.751 108.296C103.231 108.024 103.599 107.672 103.855 107.24C104.111 106.792 104.239 106.312 104.239 105.8ZM118.62 108.896L118.092 109.976H110.556V109.112L112.812 107.336V93.032L110.268 92.216L110.82 91.136H118.356V92L116.076 93.8V108.056L118.62 108.896ZM129.18 109.952H124.692L117.372 100.496L124.644 94.136L121.86 92.168L122.412 91.088H129.012V91.952L120.54 99.368L126.972 107.552L129.732 108.872L129.18 109.952ZM150.615 110H142.983V109.136L145.335 107.432L143.559 103.16H135.591L133.767 107.408L137.895 108.92L137.343 110H129.951V109.136L132.279 107.336L138.951 91.904L141.783 90.68L148.743 107.528L151.143 108.92L150.615 110ZM139.671 93.728L136.143 101.912H143.055L139.671 93.728ZM170.197 109.976H165.589L160.453 101.504L159.325 100.712L159.733 99.896H161.029C162.085 99.896 162.909 99.624 163.501 99.08C164.109 98.536 164.413 97.784 164.413 96.824C164.413 95.576 164.069 94.552 163.381 93.752C162.709 92.936 161.717 92.528 160.405 92.528C159.557 92.528 158.765 92.792 158.029 93.32V108.08L160.573 108.92L160.045 110H152.509V109.136L154.765 107.36V93.008L152.221 92.216L152.773 91.136H155.797C157.253 91.136 158.669 91.088 160.045 90.992C161.069 90.928 161.821 90.896 162.301 90.896C163.405 90.896 164.389 91.112 165.253 91.544C166.117 91.976 166.781 92.568 167.245 93.32C167.725 94.056 167.965 94.864 167.965 95.744C167.965 96.528 167.717 97.28 167.221 98C166.741 98.72 166.101 99.352 165.301 99.896C164.501 100.44 163.653 100.856 162.757 101.144L164.389 101.672L167.965 107.576L170.749 108.896L170.197 109.976Z" fill="#1A4C5B"/>
</g>
<defs>
<filter id="filter0_b_1_2" x="-4" y="-4" width="208" height="208" filterUnits="userSpaceOnUse" color-interpolation-filters="sRGB">
<feFlood flood-opacity="0" result="BackgroundImageFix"/>
<feGaussianBlur in="BackgroundImageFix" stdDeviation="2"/>
<feComposite in2="SourceAlpha" operator="in" result="effect1_backgroundBlur_1_2"/>
<feBlend mode="normal" in="SourceGraphic" in2="effect1_backgroundBlur_1_2" result="shape"/>
</filter>
<clipPath id="clip0_1_2">
<rect width="200" height="200" fill="white"/>
</clipPath>
</defs>
</svg>
